{"title":"G-Force-AC3-XviD-DVDRip[Ned]2009 2Lions-Team","uid":5718221,"size":1468745577,"categoryP":"video","categoryS":"movies","magnet":"?xt=urn:btih:d98d3a3ed1be7e1c87b22037722d652b1db4f988&amp;dn=G-Force-AC3-XviD-DVDRip%5BNed%5D2009+2Lions-Team&amp;tr=udp%3A%2F%2Ftracker.openbittorrent.com%3A80&amp;tr=udp%3A%2F%2Fopen.demonii.com%3A1337&amp;tr=udp%3A%2F%2Ftracker.coppersurfer.tk%3A6969&amp;tr=udp%3A%2F%2Fexodus.desync.com%3A6969","seeders":0,"leechers":1,"uploader":null,"files":10,"time":1280189507,"description":"Verenigde Staten\nActie / Avontuur\n89 minuten\n\ngeregisseerd door Hoyt Yeatman\nmet de stemmen van Nicolas Cage, Sam Rockwell en PenÃƒÂ©lope Cruz\n\nJuist wanneer de G-Force, een eliteteam van zeer getrainde cavia's, op het puntje staat om de wereld te redden, heft de F.B.I. de geheime eenheid op. Maar teamleider Darwin, vechtsportdiva Juarez, wapenexpert Blaster, computerspecialist Speckles en de meehobbelende Hurley zijn niet te stoppen. Gewapend met de nieuwste en meest geavanceerde spionageapparatuur, en met de F.B.I. op hun hielen, gaan ze het conflict aan in een race tegen de klok om de wereld te redden van de plannen van een gestoorde multimiljardair\n &lt;a href=&quot;\nhttp://www.imdb.com/title/tt0436339/&quot; rel=&quot;nofollow&quot; target=&quot;_NEW&quot;&gt;\nhttp://www.imdb.com/title/tt0436339/&lt;/a&gt;\n &lt;a href=&quot;\nhttp://www.moviemeter.nl/film/54989&quot; rel=&quot;nofollow&quot; target=&quot;_NEW&quot;&gt;\nhttp://www.moviemeter.nl/film/54989&lt;/a&gt;\n\nNederlands gesproken.\n\nHoesjes bijgevoegd.\n\nGeneral\nComplete name                    : G-Force-AC3-XviD-DVDRip[Ned]2009 2Lions-TeamG-Force-AC3-XviD-DVDRip[Ned]2009 2Lions-Team.avi\nFormat                           : AVI\nFormat/Info                      : Audio Video Interleave\nFile size                        : 1.36 GiB\nDuration                         : 1h 24mn\nOverall bit rate                 : 2 302 Kbps\nWriting application              : VirtualDubMod 1.5.4.1 (build 2178/release)\nWriting library                  : VirtualDubMod build 2178/release\n\nVideo\nID                               : 0\nFormat                           : MPEG-4 Visual\nFormat profile                   : Simple@L3\nFormat settings, BVOP            : No\nFormat settings, QPel            : No\nFormat settings, GMC             : No warppoints\nFormat settings, Matrix          : Default (H.263)\nCodec ID                         : XVID\nCodec ID/Hint                    : XviD\nDuration                         : 1h 24mn\nBit rate                         : 1 908 Kbps\nWidth                            : 720 pixels\nHeight                           : 304 pixels\nDisplay aspect ratio             : 2.35:1\nFrame rate                       : 25.000 fps\nResolution                       : 8 bits\nColorimetry                      : 4:2:0\nScan type                        : Progressive\nBits/(Pixel*Frame)               : 0.349\nStream size                      : 1.13 GiB (83%)\nWriting library                  : XviD 1.1.2 (UTC 2006-11-01)\n\nAudio\nID                               : 1\nFormat                           : AC-3\nFormat/Info                      : Audio Coding 3\nFormat_Settings_ModeExtension    : CM (complete main)\nCodec ID                         : 2000\nDuration                         : 1h 24mn\nBit rate mode                    : Constant\nBit rate                         : 384 Kbps\nChannel(s)                       : 6 channels\nChannel positions                : Front: L C R, Side: L R, LFE\nSampling rate                    : 48.0 KHz\nStream size                      : 233 MiB (17%)\nAlignment                        : Split accross interleaves\nInterleave, duration             : 40 ms (1.00 video frame)\nInterleave, preload duration     : 500 ms\n\nThanks to XxiBiTeTeam for the source.\n\nBrought to you by \n2Lions Team\n\nmeer zien??\n                   \nKom dan eens kijken op ons NIEUWE forum \n            &lt;a href=&quot;\nhttp://www.2lions-site.nl/&quot; rel=&quot;nofollow&quot; target=&quot;_NEW&quot;&gt;\nhttp://www.2lions-site.nl/&lt;/a&gt;\n\n2Lions the site to be for all your Dutch MOVIES and more\n\n******************************************\n\nDON T HIT AND RUN Niet gelijk afhaken als de FILM binnen is blijf seeden. \n\nDon`t quit after you finished the download, but keep seeding\n\nThere are fake torrents from uploaders who use our team name.\nThose are not ours, or members from our team.\nWe 2Lions-Team are not responsible for the fake posts on our name\n\nWij 2Lions-Team zijn niet verantwoordelijk voor die zieke FAKE posten die op onze naam worden gedaan\n\nPlease check our site !!!\n\nto the fakers , get a life !!!","torrent":{"xt":"urn:btih:d98d3a3ed1be7e1c87b22037722d652b1db4f988","amp;dn":"G-Force-AC3-XviD-DVDRip%5BNed%5D2009+2Lions-Team","amp;tr":["udp%3A%2F%2Ftracker.openbittorrent.com%3A80","udp%3A%2F%2Fopen.demonii.com%3A1337","udp%3A%2F%2Ftracker.coppersurfer.tk%3A6969","udp%3A%2F%2Fexodus.desync.com%3A6969"],"infoHash":"d98d3a3ed1be7e1c87b22037722d652b1db4f988","infoHashBuffer":{"type":"Buffer","data":[217,141,58,62,209,190,126,28,135,178,32,55,114,45,101,43,29,180,249,136]},"announce":[],"urlList":[]}}